<svg width="512" height="512" viewBox="0 0 512 512" fill="none" xmlns="http://www.w3.org/2000/svg">
<g clip-path="url(#clip0_3_3)">
<path d="M98.2071 333.694C94.5008 327.655 88.9824 315.411 86.0586 306.619C80.5402 290.102 77.9046 268.08 79.4283 251.071C80.7461 236.65 84.123 221.407 88.4059 210.602C91.2474 203.453 91.4945 202.919 94.1713 197.454C104.302 176.911 119.374 159.327 137.288 147.289C155.161 135.251 173.611 128.061 196.096 124.363C211.868 121.734 221.505 121.282 265.363 121.035C320.176 120.706 342.043 120.008 358.433 118.159C386.807 114.913 406.698 109.613 424.942 100.41C428.689 98.5612 431.819 97 431.901 97C432.272 97 431.531 118.57 430.913 126.171C427.742 165.325 418.888 201.234 404.433 233.61C394.22 256.494 381.166 276.749 371.2 285.254C361.357 293.636 344.926 297.58 329.442 295.238C320.052 293.841 305.762 289.075 288.178 281.556C279.694 277.9 262.604 271.819 253.297 269.108C220.022 259.452 186.789 257.439 161.05 263.602C156.232 264.752 145.36 268.204 144.578 268.861C144.289 269.066 143.96 269.149 143.836 269.025C143.424 268.614 150.178 261.466 154.585 257.686C176.823 238.499 202.891 225.721 237.113 217.175C248.437 214.382 269.152 209.985 271.211 209.985C271.705 209.985 273.311 211.013 274.917 212.368C295.673 230.076 324.129 241.416 351.021 242.731C353.739 242.854 355.88 242.854 355.757 242.772C355.633 242.648 353.244 241.786 350.444 240.841C334.836 235.664 314.122 225.023 302.221 216.066C298.432 213.231 291.555 207.561 289.29 205.466C289.084 205.261 290.566 204.603 292.584 204.028C328.288 193.264 357.939 177.569 383.348 155.917C389.69 150.535 394.714 145.728 390.143 149.466C389.031 150.37 384.831 153.246 380.877 155.835C363.499 167.215 347.891 174.446 323.841 182.212C313.051 185.663 299.708 188.95 282.659 192.319C251.897 198.399 246.543 199.509 238.307 201.398C228.794 203.576 214.216 207.561 209.233 209.369C207.585 209.944 206.103 210.355 205.897 210.232C205.444 209.944 205.732 205.178 206.515 199.714C209.109 182.047 216.81 164.75 227.023 153.821C228.629 152.096 229.617 150.781 229.206 150.945C227.105 151.726 217.922 158.464 214.545 161.71C200.296 175.391 192.06 192.277 189.754 212.533L189.26 216.888L184.112 219.435C148.366 236.896 122.834 262.287 108.914 294.293C103.643 306.372 100.596 318.903 100.06 330.736L99.8132 336.282L98.2071 333.694Z" fill="#218F53"/>
<path d="M229.123 413.934C212.651 412.989 201.573 411.182 188.312 407.402C157.138 398.486 131.646 380.737 121.269 360.77C118.674 355.716 116.903 350.745 115.627 344.746C114.844 341.172 114.68 339.117 114.68 332.626C114.638 324.409 114.886 322.396 116.78 316.644C119.374 308.468 123.245 302.264 129.67 295.813C140.336 285.131 155.367 278.229 174.558 275.229C179.829 274.449 182.053 274.325 193.501 274.325C203.344 274.325 207.832 274.49 212.033 275.024C236.907 278.187 256.385 283.652 288.836 296.594C315.769 307.317 325.982 310.07 341.137 310.522L348.509 310.768L346.614 312.494C342.002 316.685 330.677 324.573 323.429 328.764C312.063 335.255 296.702 341.747 283.277 345.732C278.418 347.17 266.351 349.882 260.339 350.909C250.538 352.552 238.677 353.374 221.711 353.662C206.885 353.867 205.485 353.949 203.714 354.689C200.378 356.086 199.225 359.29 200.09 364.714C202.849 381.805 225.005 397.377 253.461 402.184C268.204 404.69 288.466 404.279 300.079 401.239C306.339 399.636 297.32 403.293 287.807 406.21C276.317 409.785 263.469 412.291 251.155 413.318C245.719 413.811 232.788 414.14 229.123 413.934Z" fill="#115735"/>
</g>
</svg>
